# xmcd CD database file
#
# Track frame offsets:
#	150
#	15910
#	29245
#	45252
#	60322
#	75032
#	92392
#	101962
#	115815
#	129572
#	142977
#	155622
#	166067
#	184885
#	197590
#	213742
#	227857
#	246185
#
# Disc length: 3475 seconds
#
# Revision: 0
# Processed by: cddbd v1.5.1PL0 Copyright (c) Steve Scherf et al.
# Submitted via: CDex 1.51
#
DISCID=e30d9112
DTITLE=越路吹雪 - FUBUKI KOSHIJI GOLDEN BEST
DYEAR=1900
DGENRE=JPop
TTITLE0=サン・トワ・マミー
TTITLE1=ろくでなし
TTITLE2=愛の讃歌
TTITLE3=ラストダンスは私に
TTITLE4=バラ色の人生
TTITLE5=明日は月の上で
TTITLE6=幸福を売る男
TTITLE7=雪が降る
TTITLE8=家へ帰るのが怖い
TTITLE9=イカルスの星
TTITLE10=オー・シャンゼリゼ
TTITLE11=想い出のソレンツァラ
TTITLE12=枯葉
TTITLE13=恋ごころ
TTITLE14=セ・シ・ボン
TTITLE15=誰もいない海
TTITLE16=メランコリー
TTITLE17=夢の中に君がいる
EXTD=
EXTT0=
EXTT1=
EXTT2=
EXTT3=
EXTT4=
EXTT5=
EXTT6=
EXTT7=
EXTT8=
EXTT9=
EXTT10=
EXTT11=
EXTT12=
EXTT13=
EXTT14=
EXTT15=
EXTT16=
EXTT17=
PLAYORDER=
